<svg xmlns="http://www.w3.org/2000/svg" xmlns:xlink="http://www.w3.org/1999/xlink" version="1.1" x="0px" y="0px" viewBox="0 0 100 125" enable-background="new 0 0 100 100" xml:space="preserve"><path fill-rule="evenodd" clip-rule="evenodd" d="M78.181,29.658H21.819c-1.689,0-3.058-1.369-3.058-3.058v-1.2  c0-1.689,1.369-3.058,3.058-3.058h56.363c1.689,0,3.058,1.369,3.058,3.058v1.2C81.24,28.289,79.871,29.658,78.181,29.658z   M21.819,46.341h44.362c1.689,0,3.058,1.369,3.058,3.058v1.2c0,1.689-1.369,3.058-3.058,3.058H21.819  c-1.689,0-3.058-1.369-3.058-3.058v-1.2C18.76,47.711,20.129,46.341,21.819,46.341z M21.819,70.341h32.363  c1.689,0,3.058,1.369,3.058,3.058v1.2c0,1.689-1.369,3.058-3.058,3.058H21.819c-1.689,0-3.058-1.369-3.058-3.058v-1.2  C18.76,71.711,20.129,70.341,21.819,70.341z"/></svg>